<?xml version="1.0" standalone="no"?>
<!DOCTYPE svg PUBLIC "-//W3C//DTD SVG 20010904//EN"
 "http://www.w3.org/TR/2001/REC-SVG-20010904/DTD/svg10.dtd">
<svg version="1.0" xmlns="http://www.w3.org/2000/svg"
 width="700.000000pt" height="700.000000pt" viewBox="0 0 700.000000 700.000000"
 preserveAspectRatio="xMidYMid meet">
<metadata>
Created by potrace 1.14, written by Peter Selinger 2001-2017
</metadata>
<g transform="translate(0.000000,700.000000) scale(0.100000,-0.100000)"
fill="#000000" stroke="none">
<path d="M987 6558 c-97 -12 -176 -65 -223 -150 l-29 -53 0 -2855 0 -2855 23
-46 c60 -123 200 -191 293 -144 16 9 211 137 433 285 222 149 407 270 412 270
4 0 186 -119 405 -265 219 -146 410 -270 426 -276 61 -23 89 -9 509 272 223
149 412 268 419 265 7 -2 188 -122 402 -265 214 -143 400 -264 413 -269 13 -5
43 -5 68 -1 43 9 76 31 196 130 17 14 126 101 241 193 116 93 223 179 239 192
17 13 33 24 38 24 7 0 28 -15 62 -45 6 -6 40 -33 74 -60 35 -28 106 -84 157
-125 51 -41 130 -104 175 -140 45 -36 96 -78 113 -93 68 -60 136 -99 179 -104
83 -10 183 61 233 163 l24 49 1 1875 c0 1812 -1 1876 -19 1910 -52 99 -194 99
-249 1 l-22 -39 0 -1836 c0 -1010 -3 -1836 -6 -1836 -4 0 -21 12 -39 28 -39
33 -10 9 -345 276 -151 121 -289 232 -305 248 l-31 28 -204 -163 c-113 -89
-279 -221 -369 -293 l-163 -131 -397 266 c-218 146 -414 277 -435 292 l-40 27
-432 -289 c-238 -159 -438 -289 -443 -289 -6 0 -201 127 -433 281 -233 155
-430 284 -439 286 -10 3 -112 -60 -245 -149 -467 -314 -622 -418 -628 -418 -3
0 -5 1225 -3 2723 l2 2722 23 33 c48 67 -147 62 2454 62 2615 0 2401 6 2451
-64 21 -30 22 -39 27 -376 5 -338 5 -346 28 -377 61 -85 201 -74 246 21 14 30
16 85 16 440 0 381 -1 408 -20 459 -32 84 -107 155 -190 177 -35 10 -601 13
-2530 14 -1367 0 -2511 -2 -2543 -6z"/>
<path d="M3425 5678 c-360 -47 -586 -402 -480 -754 29 -98 126 -232 217 -299
63 -47 160 -84 263 -99 337 -51 656 225 657 569 1 353 -309 628 -657 583z
m200 -314 c95 -45 165 -153 165 -255 0 -117 -69 -227 -170 -272 -62 -28 -160
-31 -225 -6 -66 25 -131 88 -162 158 -34 77 -29 173 12 250 74 136 241 191
380 125z"/>
<path d="M1692 5230 c-61 -28 -92 -79 -85 -140 6 -49 33 -91 73 -115 33 -19
52 -20 367 -20 319 0 333 1 359 21 45 33 68 71 70 116 2 55 -19 98 -64 128
l-36 25 -323 1 c-283 0 -328 -2 -361 -16z"/>
<path d="M4625 5238 c-54 -15 -89 -57 -100 -117 -11 -66 33 -137 100 -158 17
-5 171 -9 345 -8 277 1 319 3 347 18 37 19 59 49 73 96 16 58 -23 140 -79 164
-31 13 -641 18 -686 5z"/>
<path d="M2807 3931 c-94 -20 -143 -139 -90 -220 8 -13 123 -131 254 -262 132
-132 237 -240 234 -240 -3 -1 -71 -2 -152 -3 -173 -2 -201 -8 -236 -44 -50
-53 -58 -103 -26 -168 36 -75 59 -81 328 -80 147 1 231 -3 232 -9 3 -34 4
-262 1 -272 -3 -8 -68 -12 -239 -12 -207 0 -239 -3 -266 -18 -47 -28 -71 -67
-73 -122 -3 -53 13 -85 61 -123 29 -22 37 -23 275 -28 l245 -5 0 -166 0 -166
28 -36 c33 -44 55 -57 104 -61 48 -5 84 9 115 42 38 41 44 74 43 240 l-1 152
231 0 c272 0 297 7 334 82 25 53 26 78 5 121 -23 45 -62 76 -103 83 -20 3
-133 6 -251 7 l-215 2 0 143 c0 89 3 142 10 143 5 0 114 2 242 2 217 2 233 3
259 23 45 33 68 71 70 116 2 48 -12 82 -48 114 -36 33 -61 38 -223 40 -82 1
-154 2 -158 3 -4 0 99 108 230 239 131 130 246 249 255 264 61 94 -4 218 -115
218 -26 0 -60 -6 -75 -14 -15 -8 -120 -108 -234 -223 -114 -114 -241 -242
-282 -283 l-76 -74 -292 291 c-213 211 -301 293 -323 298 -16 4 -34 8 -40 9
-5 1 -22 0 -38 -3z"/>
</g>
</svg>
